HIERARCHY
ROOT Hips
{
    OFFSET   0.000000   0.000000   0.000000
    CHANNELS 6 Xposition Yposition Zposition Zrotation Xrotation Yrotation
    JOINT Chest
    {
        OFFSET   0.000000   8.007230   0.000000
        CHANNELS 3 Zrotation Xrotation Yrotation
        JOINT Chest2
        {
            OFFSET   0.000000  22.077100   0.000000
            CHANNELS 3 Zrotation Xrotation Yrotation
            JOINT Neck
            {
                OFFSET   0.000000  23.254800  -0.000021
                CHANNELS 3 Zrotation Xrotation Yrotation
                JOINT Head
                {
                    OFFSET   0.000000  14.370000   1.956610
                    CHANNELS 3 Zrotation Xrotation Yrotation
                    End Site
                    {
                        OFFSET   0.000000  19.566000   0.000000
                    }
                }
            }
            JOINT LeftCollar
            {
                OFFSET   3.911900  19.017000  -0.467063
                CHANNELS 3 Zrotation Xrotation Yrotation
                JOINT LeftShoulder
                {
                    OFFSET  10.383700   0.000000   0.000000
                    CHANNELS 3 Zrotation Xrotation Yrotation
                    JOINT LeftElbow
                    {
                        OFFSET  26.662100   0.001529   0.000325
                        CHANNELS 3 Zrotation Xrotation Yrotation
                        JOINT LeftWrist
                        {
                            OFFSET  28.869000  -0.000011  -0.000096
                            CHANNELS 3 Zrotation Xrotation Yrotation
                            JOINT LeftFinger0
                            {
                                OFFSET   2.044650  -2.323460   3.252850
                                CHANNELS 3 Zrotation Xrotation Yrotation
                                JOINT LeftFinger01
                                {
                                    OFFSET   3.088130   0.000000   0.000000
                                    CHANNELS 3 Zrotation Xrotation Yrotation
                                    JOINT LeftFinger02
                                    {
                                        OFFSET   2.639460   0.000000   0.000000
                                        CHANNELS 3 Zrotation Xrotation Yrotation
                                        End Site
                                        {
                                            OFFSET   2.582190   0.000000   0.000000
                                        }
                                    }
                                }
                            }
                            JOINT LeftFinger1
                            {
                                OFFSET   8.364480   0.000000   3.252850
                                CHANNELS 3 Zrotation Xrotation Yrotation
                                JOINT LeftFinger11
                                {
                                    OFFSET   4.646930   0.000000   0.000000
                                    CHANNELS 3 Zrotation Xrotation Yrotation
                                    JOINT LeftFinger12
                                    {
                                        OFFSET   2.323460   0.000000   0.000000
                                        CHANNELS 3 Zrotation Xrotation Yrotation
                                        End Site
                                        {
                                            OFFSET   2.273050   0.000000   0.000000
                                        }
                                    }
                                }
                            }
                            JOINT LeftFinger2
                            {
                                OFFSET   8.364480   0.000016   1.078090
                                CHANNELS 3 Zrotation Xrotation Yrotation
                                JOINT LeftFinger21
                                {
                                    OFFSET   5.111620   0.000000   0.000000
                                    CHANNELS 3 Zrotation Xrotation Yrotation
                                    JOINT LeftFinger22
                                    {
                                        OFFSET   2.788160   0.000017   0.000000
                                        CHANNELS 3 Zrotation Xrotation Yrotation
                                        End Site
                                        {
                                            OFFSET   2.727660   0.000000   0.000000
                                        }
                                    }
                                }
                            }
                            JOINT LeftFinger3
                            {
                                OFFSET   7.899780   0.000015  -1.078090
                                CHANNELS 3 Zrotation Xrotation Yrotation
                                JOINT LeftFinger31
                                {
                                    OFFSET   4.646920   0.000000   0.000000
                                    CHANNELS 3 Zrotation Xrotation Yrotation
                                    JOINT LeftFinger32
                                    {
                                        OFFSET   2.323470   0.000000   0.000000
                                        CHANNELS 3 Zrotation Xrotation Yrotation
                                        End Site
                                        {
                                            OFFSET   2.273050   0.000000   0.000000
                                        }
                                    }
                                }
                            }
                            JOINT LeftFinger4
                            {
                                OFFSET   7.435090   0.000000  -3.252850
                                CHANNELS 3 Zrotation Xrotation Yrotation
                                JOINT LeftFinger41
                                {
                                    OFFSET   3.717550   0.000000   0.000000
                                    CHANNELS 3 Zrotation Xrotation Yrotation
                                    JOINT LeftFinger42
                                    {
                                        OFFSET   1.858760   0.000000   0.000000
                                        CHANNELS 3 Zrotation Xrotation Yrotation
                                        End Site
                                        {
                                            OFFSET   1.818440   0.000000   0.000000
                                        }
                                    }
                                }
                            }
                        }
                    }
                }
            }
            JOINT RightCollar
            {
                OFFSET  -3.911900  19.017000  -0.467062
                CHANNELS 3 Zrotation Xrotation Yrotation
                JOINT RightShoulder
                {
                    OFFSET -10.383700   0.000015   0.000000
                    CHANNELS 3 Zrotation Xrotation Yrotation
                    JOINT RightElbow
                    {
                        OFFSET -26.662100   0.001341   0.000385
                        CHANNELS 3 Zrotation Xrotation Yrotation
                        JOINT RightWrist
                        {
                            OFFSET -28.869000   0.000025  -0.000080
                            CHANNELS 3 Zrotation Xrotation Yrotation
                            JOINT RightFinger0
                            {
                                OFFSET  -2.044650  -2.323490   3.252850
                                CHANNELS 3 Zrotation Xrotation Yrotation
                                JOINT RightFinger01
                                {
                                    OFFSET  -3.088130   0.000000   0.000000
                                    CHANNELS 3 Zrotation Xrotation Yrotation
                                    JOINT RightFinger02
                                    {
                                        OFFSET  -2.639460   0.000000   0.000000
                                        CHANNELS 3 Zrotation Xrotation Yrotation
                                        End Site
                                        {
                                            OFFSET  -2.582190   0.000000   0.000000
                                        }
                                    }
                                }
                            }
                            JOINT RightFinger1
                            {
                                OFFSET  -8.364480   0.000000   3.252850
                                CHANNELS 3 Zrotation Xrotation Yrotation
                                JOINT RightFinger11
                                {
                                    OFFSET  -4.646930   0.000000   0.000000
                                    CHANNELS 3 Zrotation Xrotation Yrotation
                                    JOINT RightFinger12
                                    {
                                        OFFSET  -2.323470   0.000000   0.000000
                                        CHANNELS 3 Zrotation Xrotation Yrotation
                                        End Site
                                        {
                                            OFFSET  -2.273050   0.000000   0.000000
                                        }
                                    }
                                }
                            }
                            JOINT RightFinger2
                            {
                                OFFSET  -8.364480   0.000000   1.078090
                                CHANNELS 3 Zrotation Xrotation Yrotation
                                JOINT RightFinger21
                                {
                                    OFFSET  -5.111610   0.000000   0.000000
                                    CHANNELS 3 Zrotation Xrotation Yrotation
                                    JOINT RightFinger22
                                    {
                                        OFFSET  -2.788160   0.000000   0.000000
                                        CHANNELS 3 Zrotation Xrotation Yrotation
                                        End Site
                                        {
                                            OFFSET  -2.727660   0.000000   0.000000
                                        }
                                    }
                                }
                            }
                            JOINT RightFinger3
                            {
                                OFFSET  -7.899780   0.000000  -1.078090
                                CHANNELS 3 Zrotation Xrotation Yrotation
                                JOINT RightFinger31
                                {
                                    OFFSET  -4.646920   0.000000   0.000000
                                    CHANNELS 3 Zrotation Xrotation Yrotation
                                    JOINT RightFinger32
                                    {
                                        OFFSET  -2.323470   0.000000   0.000000
                                        CHANNELS 3 Zrotation Xrotation Yrotation
                                        End Site
                                        {
                                            OFFSET  -2.273050   0.000000   0.000000
                                        }
                                    }
                                }
                            }
                            JOINT RightFinger4
                            {
                                OFFSET  -7.435090   0.000000  -3.252850
                                CHANNELS 3 Zrotation Xrotation Yrotation
                                JOINT RightFinger41
                                {
                                    OFFSET  -3.717550   0.000000   0.000000
                                    CHANNELS 3 Zrotation Xrotation Yrotation
                                    JOINT RightFinger42
                                    {
                                        OFFSET  -1.858770   0.000000   0.000000
                                        CHANNELS 3 Zrotation Xrotation Yrotation
                                        End Site
                                        {
                                            OFFSET  -1.818440   0.000000   0.000000
                                        }
                                    }
                                }
                            }
                        }
                    }
                }
            }
        }
    }
    JOINT LeftHip
    {
        OFFSET   9.783010   0.000000   0.000000
        CHANNELS 3 Zrotation Xrotation Yrotation
        JOINT LeftKnee
        {
            OFFSET   0.000070 -41.789100   0.000028
            CHANNELS 3 Zrotation Xrotation Yrotation
            JOINT LeftAnkle
            {
                OFFSET   0.000087 -41.133200  -0.000100
                CHANNELS 3 Zrotation Xrotation Yrotation
                JOINT LeftToe
                {
                    OFFSET   0.000000  -6.358960  14.674500
                    CHANNELS 3 Zrotation Xrotation Yrotation
                    End Site
                    {
                        OFFSET   0.000000   0.000000   3.913200
                    }
                }
            }
        }
    }
    JOINT RightHip
    {
        OFFSET  -9.783020   0.000000   0.000000
        CHANNELS 3 Zrotation Xrotation Yrotation
        JOINT RightKnee
        {
            OFFSET   0.000044 -41.789100  -0.000870
            CHANNELS 3 Zrotation Xrotation Yrotation
            JOINT RightAnkle
            {
                OFFSET  -0.000090 -41.133200  -0.000245
                CHANNELS 3 Zrotation Xrotation Yrotation
                JOINT RightToe
                {
                    OFFSET   0.000000  -6.358960  14.674500
                    CHANNELS 3 Zrotation Xrotation Yrotation
                    End Site
                    {
                        OFFSET   0.000000   0.000000   3.913200
                    }
                }
            }
        }
    }
}
MOTION
Frames: 4
Frame Time:   0.016667
 -4.427220  89.128800   0.873787  -0.773669 -15.948500  -1.448420   1.113830  11.090900  -0.758133   2.451480  22.163200  -1.792700   5.566510  -2.202620   0.216448   9.181390  -4.340380  20.664700  -3.374340   1.974840   7.086470 -75.341600 -37.235600 -31.299700  -2.995110 -25.927700 -23.262300 -36.134500 -73.861900 -33.825100  40.119800  17.960800 -53.685000 -17.781600   0.000921   0.000264  -3.890830   0.000000  -0.000289 -17.977900  -0.307562   0.947578 -14.711200   0.000000  -0.001504 -10.297900   0.001210  -0.001781 -22.007000  -3.984620   9.755450 -22.347100  -0.000692   0.002152 -14.883200   0.013056  -0.001184 -18.668000  -3.409320   9.970720 -18.965800   0.007221   0.000214 -12.631300   0.001446  -0.000915 -22.159200  -5.761980  13.848000 -34.289200  -0.001038  -0.007870 -22.836600   0.005567   0.009218   2.218640   3.304410   4.714260  68.353700 -42.373800  36.310800  -5.839910 -24.075500  18.549700 -27.244200 -78.020500 -18.668700 -40.710300  29.154700  68.873200  20.771500   0.000972  -0.000314   5.385750  -0.003292   0.001145  24.606000  -0.696494  -1.520470  20.139800   0.005476   0.002203  14.097800   0.003093   0.003449  26.004500  -1.124590  -2.303830  26.027100   0.000834  -0.001067  17.334100   0.004068   0.002848  26.892100  -3.486980  -6.838680  27.409300   0.000718  -0.001055  18.254600  -0.001281   0.001978  27.686700  -3.581760  -6.789710  41.848800   0.001037   0.004522  27.871300   0.001930  -0.004759   4.912160  15.477000  -2.460380   1.725800   5.650100  11.196900  -6.026130  -5.009650  -3.095840  -0.000000   0.000000   0.000000   2.806770  13.005600  -7.302180  -2.312850   9.758590  -8.708510   0.810479  -7.242290   2.162740   0.000000   0.000000   0.000000
 -4.405060  89.127800   0.891032  -0.755725 -15.948900  -1.376890   1.114410  11.075700  -0.778240   2.456390  22.132300  -1.833500   5.639930  -2.176220   0.217116   9.303250  -4.284500  20.864400  -3.375840   1.990910   7.109370 -75.324400 -37.273100 -31.247500  -2.978980 -25.903000 -23.250800 -36.041500 -73.886100 -33.711200  40.078700  17.873100 -53.642400 -17.821900   0.000932   0.000325  -3.910990   0.000000  -0.000291 -17.992500  -0.300870   0.926104 -14.723000   0.000053  -0.001552 -10.306200   0.001242  -0.001808 -22.028900  -3.984990   9.748870 -22.368600  -0.000697   0.002096 -14.897500   0.013066  -0.001201 -18.692300  -3.409870   9.966660 -18.989800   0.007355   0.000221 -12.647300   0.001453  -0.000923 -22.198000  -5.764320  13.832900 -34.349000  -0.001033  -0.008009 -22.876400   0.005641   0.009311   2.247880   3.325410   4.726580  68.482900 -42.389300  36.436200  -5.831380 -24.062800  18.509100 -27.480700 -77.974700 -18.889300 -40.690000  29.190500  68.943500  20.890300   0.000956  -0.000226   5.445150  -0.003347   0.001125  24.660600  -0.716095  -1.559640  20.184300   0.005546   0.002214  14.128900   0.003032   0.003462  26.052500  -1.143970  -2.339290  26.074700   0.000799  -0.001026  17.365800   0.004059   0.002908  26.905100  -3.483500  -6.828780  27.455500   0.000665  -0.001012  18.285400  -0.001216   0.002034  27.723000  -3.580190  -6.778760  41.897300   0.000975   0.004606  27.903700   0.001886  -0.004749   4.908120  15.488300  -2.463100   1.716970   5.623320  11.169000  -6.014440  -5.002410  -3.130770  -0.000000   0.000000   0.000000   2.786580  13.039500  -7.255700  -2.293260   9.726880  -8.783460   0.822532  -7.237560   2.122680   0.000000   0.000000   0.000000
 -4.378620  89.127600   0.903502  -0.743581 -15.948400  -1.331860   1.113170  11.065200  -0.788119   2.455580  22.111200  -1.853460   5.688440  -2.164130   0.217867   9.381200  -4.258860  20.941000  -3.376890   2.004420   7.121580 -75.320800 -37.320200 -31.200000  -2.966340 -25.890400 -23.246000 -36.018600 -73.916800 -33.670200  40.031900  17.781100 -53.598300 -17.858700   0.000940   0.000387  -3.929380   0.000000  -0.000292 -17.999800  -0.291619   0.897268 -14.728900   0.000104  -0.001598 -10.310300   0.001278  -0.001836 -22.047500  -3.985130   9.745290 -22.387000  -0.000702   0.002043 -14.909700   0.013076  -0.001217 -18.709500  -3.410270   9.963970 -19.007000   0.007488   0.000226 -12.658700   0.001461  -0.000929 -22.220800  -5.766660  13.817900 -34.380200  -0.001028  -0.008150 -22.897200   0.005714   0.009404   2.270280   3.341580   4.728400  68.672900 -42.435000  36.599900  -5.823710 -24.020900  18.470700 -27.515400 -77.894000 -18.910600 -40.675900  29.215800  68.993200  20.985200   0.000938  -0.000164   5.492620  -0.003404   0.001105  24.700300  -0.735694  -1.598820  20.217800   0.005618   0.002225  14.152400   0.002971   0.003475  26.082800  -1.163340  -2.374740  26.107000   0.000764  -0.000985  17.387300   0.004050   0.002966  26.912600  -3.480010  -6.818880  27.490500   0.000612  -0.000968  18.308700  -0.001152   0.002094  27.742000  -3.578620  -6.767800  41.930700   0.000912   0.004689  27.925900   0.001843  -0.004738   4.896890  15.494600  -2.466630   1.702970   5.598470  11.156900  -5.999830  -4.995090  -3.147390  -0.000000   0.000000   0.000000   2.761880  13.057800  -7.209430  -2.280770   9.711220  -8.844260   0.836989  -7.235200   2.098810  -0.000000   0.000000   0.000000
 -4.351300  89.129100   0.913805  -0.730323 -15.945700  -1.315380   1.106790  11.064000  -0.781039   2.440980  22.109400  -1.837730   5.723300  -2.182750   0.220019   9.433350  -4.294640  20.935200  -3.372820   2.018190   7.119480 -75.367500 -37.393000 -31.199500  -2.956490 -25.877900 -23.260200 -36.147400 -73.968000 -33.798600  40.012100  17.765500 -53.623600 -17.833800   0.000943   0.000374  -3.916910   0.000000  -0.000294 -18.017400  -0.272240   0.836824 -14.743100   0.000164  -0.001639 -10.320200   0.001303  -0.001877 -22.066600  -3.985270   9.745410 -22.406100  -0.000705   0.001982 -14.922500   0.013090  -0.001241 -18.713800  -3.410560   9.962690 -19.011500   0.007624   0.000226 -12.661700   0.001468  -0.000921 -22.223700  -5.772880  13.827700 -34.382100  -0.001013  -0.008300 -22.898500   0.005787   0.009492   2.277640   3.350840   4.709770  68.884900 -42.492600  36.758800  -5.807690 -23.928300  18.430700 -27.406900 -77.762400 -18.803400 -40.698000  29.226100  68.978600  20.961300   0.000918  -0.000165   5.480680  -0.003474   0.001089  24.708900  -0.707458  -1.537290  20.224800   0.005698   0.002239  14.157300   0.002898   0.003485  26.090500  -1.129330  -2.305120  26.113700   0.000735  -0.000951  17.391800   0.004039   0.003016  26.922000  -3.438400  -6.733600  27.511100   0.000557  -0.000913  18.322500  -0.001088   0.002173  27.752400  -3.537260  -6.682340  41.940600   0.000849   0.004777  27.932500   0.001792  -0.004733   4.877350  15.502000  -2.470010   1.685320   5.574150  11.157000  -5.982420  -4.986620  -3.145550  -0.000000   0.000000  -0.000000   2.733240  13.064900  -7.179740  -2.279260   9.710440  -8.883790   0.852716  -7.237200   2.100070  -0.000000   0.000000   0.000000
